<svg width="142" height="24" viewBox="0 0 142 24" fill="none" xmlns="http://www.w3.org/2000/svg">
<g clip-path="url(#clip0_45_395)">
<path d="M10.5508 0.22644L23.568 15.5482V23.7736H17.4933V18.5051L8.03873 7.37659H6.07472V23.7736H0V0.22644H10.5508ZM17.4933 8.39806V0.22644H23.568V8.39806H17.4933Z" fill="#7913FC"/>
</g>
<path d="M53.3878 4.45455V19H51.044L44.1903 9.09233H44.0696V19H41.4347V4.45455H43.7926L50.6392 14.3693H50.767V4.45455H53.3878ZM60.9748 19.2131C59.881 19.2131 58.9364 18.9858 58.141 18.5312C57.3503 18.072 56.7418 17.4233 56.3157 16.5852C55.8896 15.7424 55.6765 14.7505 55.6765 13.6094C55.6765 12.4872 55.8896 11.5024 56.3157 10.6548C56.7466 9.80256 57.3479 9.13968 58.1197 8.66619C58.8915 8.18797 59.7982 7.94886 60.8398 7.94886C61.5122 7.94886 62.1467 8.05777 62.7433 8.27557C63.3446 8.48864 63.8749 8.82008 64.3342 9.26989C64.7982 9.7197 65.1628 10.2926 65.4279 10.9886C65.6931 11.6799 65.8256 12.5038 65.8256 13.4602V14.2486H56.8839V12.5156H63.3612C63.3564 12.0232 63.2499 11.5852 63.0415 11.2017C62.8332 10.8134 62.542 10.508 62.168 10.2855C61.7987 10.063 61.3678 9.9517 60.8754 9.9517C60.3498 9.9517 59.8881 10.0795 59.4904 10.3352C59.0927 10.5862 58.7826 10.9176 58.56 11.3295C58.3422 11.7367 58.2309 12.1842 58.2262 12.6719V14.1847C58.2262 14.8191 58.3422 15.3636 58.5742 15.8182C58.8062 16.268 59.1306 16.6136 59.5472 16.8551C59.9639 17.0919 60.4516 17.2102 61.0103 17.2102C61.3844 17.2102 61.7229 17.1581 62.0259 17.054C62.329 16.9451 62.5917 16.7865 62.8143 16.5781C63.0368 16.3698 63.2049 16.1117 63.3185 15.804L65.7191 16.0739C65.5676 16.7083 65.2788 17.2623 64.8526 17.7358C64.4312 18.2045 63.8915 18.5691 63.2333 18.8295C62.5752 19.0852 61.8223 19.2131 60.9748 19.2131ZM69.8686 8.09091L72.0703 12.1179L74.3075 8.09091H77.0277L73.7393 13.5455L77.0845 19H74.3786L72.0703 15.0724L69.7834 19H67.0561L70.38 13.5455L67.1413 8.09091H69.8686ZM84.4638 8.09091V10.0795H78.1925V8.09091H84.4638ZM79.7408 5.47727H82.3118V15.7188C82.3118 16.0644 82.3639 16.3295 82.468 16.5142C82.5769 16.6941 82.719 16.8172 82.8942 16.8835C83.0694 16.9498 83.2635 16.983 83.4766 16.983C83.6375 16.983 83.7843 16.9711 83.9169 16.9474C84.0542 16.9238 84.1584 16.9025 84.2294 16.8835L84.6626 18.8935C84.5253 18.9408 84.3288 18.9929 84.0732 19.0497C83.8222 19.1065 83.5144 19.1397 83.1499 19.1491C82.5059 19.1681 81.9259 19.071 81.4098 18.858C80.8937 18.6402 80.4841 18.304 80.1811 17.8494C79.8828 17.3949 79.736 16.8267 79.7408 16.1449V5.47727ZM94.6325 8.45312C94.5662 7.83286 94.2868 7.34991 93.7944 7.00426C93.3067 6.65862 92.6722 6.4858 91.891 6.4858C91.3417 6.4858 90.8706 6.56866 90.4776 6.73438C90.0846 6.90009 89.784 7.125 89.5756 7.40909C89.3673 7.69318 89.2608 8.01752 89.256 8.3821C89.256 8.68513 89.3247 8.94792 89.462 9.17045C89.604 9.39299 89.7958 9.58239 90.0373 9.73864C90.2788 9.89015 90.5463 10.018 90.8398 10.1222C91.1334 10.2263 91.4293 10.3139 91.7276 10.3849L93.0913 10.7259C93.6405 10.8537 94.1684 11.0265 94.6751 11.2443C95.1864 11.4621 95.6433 11.7367 96.0458 12.0682C96.453 12.3996 96.775 12.7997 97.0117 13.2685C97.2485 13.7372 97.3668 14.2865 97.3668 14.9162C97.3668 15.7685 97.149 16.5189 96.7134 17.1676C96.2778 17.8116 95.6481 18.3158 94.8242 18.6804C94.0051 19.0402 93.0131 19.2202 91.8484 19.2202C90.7167 19.2202 89.7343 19.045 88.9009 18.6946C88.0723 18.3442 87.4237 17.8329 86.9549 17.1605C86.4909 16.4882 86.2399 15.669 86.2021 14.7031H88.7944C88.8323 15.2098 88.9885 15.6312 89.2631 15.9673C89.5378 16.3035 89.8952 16.5545 90.3356 16.7202C90.7807 16.8859 91.2778 16.9688 91.8271 16.9688C92.4 16.9688 92.9019 16.8835 93.3327 16.7131C93.7683 16.5379 94.1093 16.2964 94.3555 15.9886C94.6017 15.6761 94.7272 15.3116 94.7319 14.8949C94.7272 14.5161 94.6159 14.2036 94.3981 13.9574C94.1803 13.7064 93.8749 13.4981 93.4819 13.3324C93.0936 13.1619 92.6391 13.0104 92.1183 12.8778L90.4634 12.4517C89.2655 12.1439 88.3185 11.6776 87.6225 11.0526C86.9312 10.4228 86.5856 9.58712 86.5856 8.54545C86.5856 7.68845 86.8176 6.93797 87.2816 6.29403C87.7504 5.65009 88.3872 5.15057 89.1921 4.79545C89.997 4.43561 90.9085 4.25568 91.9265 4.25568C92.9587 4.25568 93.863 4.43561 94.6396 4.79545C95.4208 5.15057 96.034 5.64536 96.479 6.27983C96.9241 6.90956 97.1538 7.634 97.168 8.45312H94.6325ZM101.854 19L98.7713 8.09091H101.392L103.31 15.7614H103.409L105.369 8.09091H107.962L109.922 15.7188H110.028L111.918 8.09091H114.545L111.456 19H108.778L106.733 11.6278H106.584L104.538 19H101.854ZM116.341 19V8.09091H118.912V19H116.341ZM117.633 6.54261C117.226 6.54261 116.876 6.40767 116.582 6.13778C116.288 5.86316 116.142 5.53409 116.142 5.15057C116.142 4.76231 116.288 4.43324 116.582 4.16335C116.876 3.88873 117.226 3.75142 117.633 3.75142C118.045 3.75142 118.395 3.88873 118.684 4.16335C118.978 4.43324 119.125 4.76231 119.125 5.15057C119.125 5.53409 118.978 5.86316 118.684 6.13778C118.395 6.40767 118.045 6.54261 117.633 6.54261ZM127.081 8.09091V10.0795H120.632V8.09091H127.081ZM122.244 19V7.06108C122.244 6.32718 122.396 5.71638 122.699 5.22869C123.007 4.741 123.419 4.37642 123.935 4.13494C124.451 3.89347 125.024 3.77273 125.653 3.77273C126.098 3.77273 126.494 3.80824 126.839 3.87926C127.185 3.95028 127.441 4.0142 127.607 4.07102L127.095 6.05966C126.986 6.02651 126.849 5.99337 126.683 5.96023C126.518 5.92235 126.333 5.90341 126.129 5.90341C125.651 5.90341 125.313 6.01941 125.114 6.25142C124.92 6.47869 124.822 6.8054 124.822 7.23153V19H122.244ZM134.542 8.09091V10.0795H128.271V8.09091H134.542ZM129.819 5.47727H132.39V15.7188C132.39 16.0644 132.442 16.3295 132.546 16.5142C132.655 16.6941 132.797 16.8172 132.972 16.8835C133.147 16.9498 133.342 16.983 133.555 16.983C133.716 16.983 133.862 16.9711 133.995 16.9474C134.132 16.9238 134.237 16.9025 134.308 16.8835L134.741 18.8935C134.603 18.9408 134.407 18.9929 134.151 19.0497C133.9 19.1065 133.593 19.1397 133.228 19.1491C132.584 19.1681 132.004 19.071 131.488 18.858C130.972 18.6402 130.562 18.304 130.259 17.8494C129.961 17.3949 129.814 16.8267 129.819 16.1449V5.47727Z" fill="white"/>
<path d="M138.276 19.1562C137.845 19.1562 137.476 19.0047 137.168 18.7017C136.86 18.3987 136.709 18.0294 136.713 17.5938C136.709 17.1676 136.86 16.803 137.168 16.5C137.476 16.197 137.845 16.0455 138.276 16.0455C138.693 16.0455 139.055 16.197 139.363 16.5C139.675 16.803 139.834 17.1676 139.838 17.5938C139.834 17.8826 139.758 18.1454 139.611 18.3821C139.469 18.6188 139.28 18.8082 139.043 18.9503C138.811 19.0876 138.555 19.1562 138.276 19.1562Z" fill="#7913FC"/>
<defs>
<clipPath id="clip0_45_395">
<rect width="24" height="24" fill="white"/>
</clipPath>
</defs>
</svg>
