<svg width="181" height="36" viewBox="0 0 181 36" fill="none" xmlns="http://www.w3.org/2000/svg">
<g clip-path="url(#clip0_3_41)">
<path d="M18.7037 0.3396L41.7797 23.3223V35.6604H31.0109V27.7576L14.2505 11.0648H10.7688V35.6604H0V0.3396H18.7037ZM31.0109 12.597V0.3396H41.7797V12.597H31.0109Z" fill="#7913FC"/>
</g>
<path d="M74.6108 9.04545V26.5H71.7983L63.5739 14.6108H63.429V26.5H60.267V9.04545H63.0966L71.3125 20.9432H71.4659V9.04545H74.6108ZM83.7152 26.7557C82.4027 26.7557 81.2692 26.483 80.3146 25.9375C79.3658 25.3864 78.6357 24.608 78.1243 23.6023C77.6129 22.5909 77.3572 21.4006 77.3572 20.0312C77.3572 18.6847 77.6129 17.5028 78.1243 16.4858C78.6413 15.4631 79.3629 14.6676 80.2891 14.0994C81.2152 13.5256 82.3033 13.2386 83.5533 13.2386C84.3601 13.2386 85.1215 13.3693 85.8374 13.6307C86.559 13.8864 87.1953 14.2841 87.7465 14.8239C88.3033 15.3636 88.7408 16.0511 89.059 16.8864C89.3771 17.7159 89.5362 18.7045 89.5362 19.8523V20.7983H78.8061V18.7188H86.5788C86.5732 18.1278 86.4453 17.6023 86.1953 17.142C85.9453 16.6761 85.5959 16.3097 85.147 16.0426C84.7038 15.7756 84.1868 15.642 83.5959 15.642C82.9652 15.642 82.4112 15.7955 81.934 16.1023C81.4567 16.4034 81.0845 16.8011 80.8175 17.2955C80.5561 17.7841 80.4226 18.321 80.4169 18.9062V20.7216C80.4169 21.483 80.5561 22.1364 80.8345 22.6818C81.1129 23.2216 81.5021 23.6364 82.0021 23.9261C82.5021 24.2102 83.0874 24.3523 83.7578 24.3523C84.2067 24.3523 84.6129 24.2898 84.9766 24.1648C85.3402 24.0341 85.6555 23.8438 85.9226 23.5938C86.1896 23.3438 86.3913 23.0341 86.5277 22.6648L89.4084 22.9886C89.2266 23.75 88.88 24.4148 88.3686 24.983C87.8629 25.5455 87.2152 25.983 86.4254 26.2955C85.6357 26.6023 84.7322 26.7557 83.7152 26.7557ZM94.3878 13.4091L97.0298 18.2415L99.7145 13.4091H102.979L99.0327 19.9545L103.047 26.5H99.7997L97.0298 21.7869L94.2855 26.5H91.0128L95.0014 19.9545L91.1151 13.4091H94.3878ZM111.902 13.4091V15.7955H104.376V13.4091H111.902ZM106.234 10.2727H109.32V22.5625C109.32 22.9773 109.382 23.2955 109.507 23.517C109.638 23.733 109.808 23.8807 110.018 23.9602C110.229 24.0398 110.462 24.0795 110.717 24.0795C110.911 24.0795 111.087 24.0653 111.246 24.0369C111.411 24.0085 111.536 23.983 111.621 23.9602L112.141 26.3722C111.976 26.429 111.74 26.4915 111.433 26.5597C111.132 26.6278 110.763 26.6676 110.325 26.679C109.553 26.7017 108.857 26.5852 108.237 26.3295C107.618 26.0682 107.126 25.6648 106.763 25.1193C106.405 24.5739 106.229 23.892 106.234 23.0739V10.2727ZM124.104 13.8438C124.025 13.0994 123.69 12.5199 123.099 12.1051C122.513 11.6903 121.752 11.483 120.815 11.483C120.156 11.483 119.59 11.5824 119.119 11.7812C118.647 11.9801 118.286 12.25 118.036 12.5909C117.786 12.9318 117.658 13.321 117.653 13.7585C117.653 14.1222 117.735 14.4375 117.9 14.7045C118.07 14.9716 118.3 15.1989 118.59 15.3864C118.88 15.5682 119.201 15.7216 119.553 15.8466C119.906 15.9716 120.261 16.0767 120.619 16.1619L122.255 16.571C122.914 16.7244 123.548 16.9318 124.156 17.1932C124.769 17.4545 125.317 17.7841 125.8 18.1818C126.289 18.5795 126.675 19.0597 126.96 19.6222C127.244 20.1847 127.386 20.8437 127.386 21.5994C127.386 22.6222 127.124 23.5227 126.602 24.3011C126.079 25.0739 125.323 25.679 124.335 26.1165C123.352 26.5483 122.161 26.7642 120.763 26.7642C119.406 26.7642 118.227 26.554 117.227 26.1335C116.232 25.7131 115.454 25.0994 114.891 24.2926C114.335 23.4858 114.033 22.5028 113.988 21.3438H117.099C117.144 21.9517 117.332 22.4574 117.661 22.8608C117.991 23.2642 118.42 23.5653 118.948 23.7642C119.482 23.9631 120.079 24.0625 120.738 24.0625C121.425 24.0625 122.028 23.9602 122.545 23.7557C123.067 23.5455 123.477 23.2557 123.772 22.8864C124.067 22.5114 124.218 22.0739 124.224 21.5739C124.218 21.1193 124.085 20.7443 123.823 20.4489C123.562 20.1477 123.195 19.8977 122.724 19.6989C122.258 19.4943 121.712 19.3125 121.087 19.1534L119.102 18.642C117.664 18.2727 116.528 17.7131 115.692 16.9631C114.863 16.2074 114.448 15.2045 114.448 13.9545C114.448 12.9261 114.727 12.0256 115.283 11.2528C115.846 10.4801 116.61 9.88068 117.576 9.45454C118.542 9.02273 119.636 8.80682 120.857 8.80682C122.096 8.80682 123.181 9.02273 124.113 9.45454C125.05 9.88068 125.786 10.4744 126.32 11.2358C126.854 11.9915 127.13 12.8608 127.147 13.8438H124.104ZM132.77 26.5L129.071 13.4091H132.216L134.517 22.6136H134.636L136.989 13.4091H140.099L142.452 22.5625H142.58L144.847 13.4091H148L144.293 26.5H141.08L138.625 17.6534H138.446L135.991 26.5H132.77ZM150.154 26.5V13.4091H153.239V26.5H150.154ZM151.705 11.5511C151.217 11.5511 150.796 11.3892 150.444 11.0653C150.092 10.7358 149.915 10.3409 149.915 9.88068C149.915 9.41477 150.092 9.01989 150.444 8.69602C150.796 8.36648 151.217 8.2017 151.705 8.2017C152.2 8.2017 152.62 8.36648 152.967 8.69602C153.319 9.01989 153.495 9.41477 153.495 9.88068C153.495 10.3409 153.319 10.7358 152.967 11.0653C152.62 11.3892 152.2 11.5511 151.705 11.5511ZM163.043 13.4091V15.7955H155.304V13.4091H163.043ZM157.239 26.5V12.1733C157.239 11.2926 157.42 10.5597 157.784 9.97443C158.153 9.3892 158.648 8.9517 159.267 8.66193C159.886 8.37216 160.574 8.22727 161.33 8.22727C161.864 8.22727 162.338 8.26989 162.753 8.35511C163.168 8.44034 163.474 8.51705 163.673 8.58523L163.06 10.9716C162.929 10.9318 162.764 10.892 162.565 10.8523C162.366 10.8068 162.145 10.7841 161.901 10.7841C161.327 10.7841 160.92 10.9233 160.682 11.2017C160.449 11.4744 160.332 11.8665 160.332 12.3778V26.5H157.239ZM171.996 13.4091V15.7955H164.47V13.4091H171.996ZM166.328 10.2727H169.413V22.5625C169.413 22.9773 169.476 23.2955 169.601 23.517C169.732 23.733 169.902 23.8807 170.112 23.9602C170.322 24.0398 170.555 24.0795 170.811 24.0795C171.004 24.0795 171.18 24.0653 171.339 24.0369C171.504 24.0085 171.629 23.983 171.714 23.9602L172.234 26.3722C172.07 26.429 171.834 26.4915 171.527 26.5597C171.226 26.6278 170.857 26.6676 170.419 26.679C169.646 26.7017 168.95 26.5852 168.331 26.3295C167.712 26.0682 167.22 25.6648 166.857 25.1193C166.499 24.5739 166.322 23.892 166.328 23.0739V10.2727Z" fill="#1B1C21"/>
<path d="M176.477 26.6875C175.96 26.6875 175.516 26.5057 175.147 26.142C174.778 25.7784 174.596 25.3352 174.602 24.8125C174.596 24.3011 174.778 23.8636 175.147 23.5C175.516 23.1364 175.96 22.9545 176.477 22.9545C176.977 22.9545 177.411 23.1364 177.781 23.5C178.156 23.8636 178.346 24.3011 178.352 24.8125C178.346 25.1591 178.255 25.4744 178.079 25.7585C177.908 26.0426 177.681 26.2699 177.397 26.4403C177.119 26.6051 176.812 26.6875 176.477 26.6875Z" fill="#7913FC"/>
<defs>
<clipPath id="clip0_3_41">
<rect width="42.5455" height="36" fill="white"/>
</clipPath>
</defs>
</svg>
