<svg width="25" height="24" viewBox="0 0 25 24" fill="none" xmlns="http://www.w3.org/2000/svg">
<path d="M21 5H13V19H21C21.2765 19 21.5 18.7765 21.5 18.5V5.5C21.5 5.2235 21.2765 5 21 5Z" fill="white"/>
<path d="M16.5 7.5H20V9H16.5V7.5ZM16.5 12.5H20V14H16.5V12.5ZM16.5 15H20V16.5H16.5V15ZM16.5 10H20V11.5H16.5V10ZM13 7.5H15.5V9H13V7.5ZM13 12.5H15.5V14H13V12.5ZM13 15H15.5V16.5H13V15ZM13 10H15.5V11.5H13V10Z" fill="#7913FC"/>
<path d="M14 21L3.5 19V5L14 3V21Z" fill="white"/>
<path d="M10.0645 15.5L8.85901 13.2195C8.81301 13.134 8.76601 12.978 8.71701 12.7505H8.69851C8.67551 12.858 8.62151 13.021 8.53651 13.24L7.32601 15.5H5.44751L7.67851 11.9995L5.63701 8.5H7.55551L8.55601 10.598C8.63401 10.7635 8.70401 10.9605 8.76601 11.1875H8.78601C8.82501 11.052 8.89801 10.8475 9.00551 10.5775L10.1185 8.5H11.876L9.77651 11.9695L11.9345 15.499H10.0645V15.5Z" fill="#7913FC"/>
</svg>
