<svg width="19" height="18" viewBox="0 0 19 18" fill="none" xmlns="http://www.w3.org/2000/svg">
<path d="M2.74999 0H12.3085L17.375 5.04677V16.875C17.375 17.4966 16.871 18 16.25 18H2.74999C2.12897 18 1.625 17.4966 1.625 16.875V1.12499C1.625 0.503448 2.12903 0 2.74999 0Z" fill="white"/>
<path d="M17.3587 5.06248H13.4375C12.8165 5.06248 12.3125 4.55851 12.3125 3.93749V0.0112305L17.3587 5.06248Z" fill="#CECDCD"/>
<path d="M13.1551 8.52928C13.3436 8.52928 13.4359 8.36503 13.4359 8.20585C13.4359 8.04102 13.3396 7.88184 13.1551 7.88184H12.0819C11.8721 7.88184 11.7551 8.05563 11.7551 8.24746V10.885C11.7551 11.1201 11.889 11.2506 12.0701 11.2506C12.2501 11.2506 12.3845 11.1201 12.3845 10.885V10.1611H13.0337C13.2351 10.1611 13.3357 9.99626 13.3357 9.8326C13.3357 9.67231 13.2351 9.51307 13.0337 9.51307H12.3845V8.52928H13.1551ZM9.52758 7.88184H8.74232C8.52912 7.88184 8.3778 8.0281 8.3778 8.24519V10.8873C8.3778 11.1567 8.59547 11.2411 8.75128 11.2411H9.57536C10.5507 11.2411 11.1948 10.5993 11.1948 9.60869C11.1943 8.56135 10.5879 7.88184 9.52758 7.88184ZM9.56529 10.5897H9.08658V8.53323H9.51803C10.1711 8.53323 10.4551 8.97144 10.4551 9.5761C10.4551 10.142 10.1761 10.5897 9.56529 10.5897ZM6.68865 7.88184H5.91072C5.69078 7.88184 5.56815 8.02693 5.56815 8.24746V10.885C5.56815 11.1201 5.70876 11.2506 5.89774 11.2506C6.08673 11.2506 6.22734 11.1201 6.22734 10.885V10.1149H6.71502C7.31689 10.1149 7.81358 9.68855 7.81358 9.00287C7.81364 8.33185 7.33441 7.88184 6.68865 7.88184ZM6.67573 9.49625H6.2274V8.50117H6.67573C6.95248 8.50117 7.12854 8.71715 7.12854 8.99897C7.12796 9.28026 6.95248 9.49625 6.67573 9.49625Z" fill="#7913FC"/>
</svg>
