<svg width="201" height="200" viewBox="0 0 201 200" fill="none" xmlns="http://www.w3.org/2000/svg">
<g clip-path="url(#clip0_21_2)">
<path d="M0.5 153.059H200.5V152.959H0.5V153.059Z" fill="#ECECEC"/>
<mask id="mask0_21_2" style="mask-type:luminance" maskUnits="userSpaceOnUse" x="0" y="0" width="201" height="200">
<path d="M0.5 1.52588e-05H200.5V200H0.5V1.52588e-05Z" fill="white"/>
</mask>
<g mask="url(#mask0_21_2)">
<path d="M18.066 22.0811C16.862 22.0811 15.8828 23.0603 15.8828 24.2643V132.837C15.8828 134.041 16.862 135.02 18.066 135.02H95.3056C96.5088 135.02 97.4884 134.041 97.4884 132.837V24.2643C97.4884 23.0603 96.5088 22.0811 95.3056 22.0811H18.066ZM95.3056 135.12H18.066C16.8072 135.12 15.7828 134.096 15.7828 132.837V24.2643C15.7828 23.0055 16.8072 21.9811 18.066 21.9811H95.3056C96.564 21.9811 97.5884 23.0055 97.5884 24.2643V132.837C97.5884 134.096 96.564 135.12 95.3056 135.12Z" fill="#ECECEC"/>
<path d="M104.585 22.0811C103.381 22.0811 102.402 23.0603 102.402 24.2643V132.837C102.402 134.041 103.381 135.02 104.585 135.02H181.824C183.028 135.02 184.008 134.041 184.008 132.837V24.2643C184.008 23.0603 183.028 22.0811 181.824 22.0811H104.585ZM181.824 135.12H104.585C103.326 135.12 102.302 134.096 102.302 132.837V24.2643C102.302 23.0055 103.326 21.9811 104.585 21.9811H181.824C183.083 21.9811 184.108 23.0055 184.108 24.2643V132.837C184.108 134.096 183.083 135.12 181.824 135.12Z" fill="#ECECEC"/>
<path d="M70.2748 156.869H80.6736V156.769H70.2748V156.869Z" fill="#ECECEC"/>
<path d="M21.4836 155.783H43.1244V155.683H21.4836V155.783Z" fill="#ECECEC"/>
<path d="M59.348 160.583H69.8748V160.483H59.348V160.583Z" fill="#ECECEC"/>
<path d="M103.791 159.911H119.324V159.811H103.791V159.911Z" fill="#ECECEC"/>
<path d="M122.885 159.911H127.162V159.811H122.885V159.911Z" fill="#ECECEC"/>
<path d="M158.638 158.222H180.461V158.122H158.638V158.222Z" fill="#ECECEC"/>
<path d="M90.6228 99.1333H31.2692V36.5005H90.6228V99.1333Z" fill="#E7E7E7"/>
<path d="M96.9834 34.4732H27.427C27.1018 34.4732 26.8378 34.7372 26.8378 35.0624C26.8378 35.388 27.1018 35.6516 27.427 35.6516H96.9834C97.3086 35.6516 97.5726 35.388 97.5726 35.0624C97.5726 34.7372 97.3086 34.4732 96.9834 34.4732Z" fill="#E7E7E7"/>
<path d="M93.1412 99.1333H32.446V36.5005H93.1412V99.1333Z" fill="#F0F0F0"/>
<path d="M90.6228 99.1331H31.2692V101.473H90.6228V99.1331Z" fill="#E7E7E7"/>
<path d="M97.3368 99.1331H36.6416V101.473H97.3368V99.1331Z" fill="#F0F0F0"/>
<path d="M35.972 40.0261H89.6156V95.6069H35.972V40.0261Z" fill="#FAFAFA"/>
<path d="M48.1494 95.6072L68.8438 40.0264H78.613L57.9182 95.6072H48.1494Z" fill="white"/>
<path d="M60.017 95.6072L80.7114 40.0264H84.5198L63.8254 95.6072H60.017Z" fill="white"/>
<path d="M89.1676 40.0261H89.6156V95.6069H89.1676V40.0261Z" fill="#E7E7E7"/>
<mask id="mask1_21_2" style="mask-type:luminance" maskUnits="userSpaceOnUse" x="27" y="33" width="27" height="57">
<path d="M27.063 33.4187H53.4388V89.9919H27.063V33.4187Z" fill="white"/>
</mask>
<g mask="url(#mask1_21_2)">
<g opacity="0.600006">
<path d="M34.516 89.9919H27.0632L31.08 33.4187H38.5328L34.516 89.9919Z" fill="#F0F0F0"/>
<path d="M37.4192 89.9919H31.6128L35.6296 33.4187H41.436L37.4192 89.9919Z" fill="#E7E7E7"/>
<path d="M41.9688 89.9919H34.516L38.5328 33.4187H45.9856L41.9688 89.9919Z" fill="#F0F0F0"/>
<path d="M44.8721 89.9919H39.0657L43.0825 33.4187H48.8889L44.8721 89.9919Z" fill="#E7E7E7"/>
<path d="M49.4217 89.9919H41.9689L45.9857 33.4187H53.4385L49.4217 89.9919Z" fill="#F0F0F0"/>
</g>
</g>
<mask id="mask2_21_2" style="mask-type:luminance" maskUnits="userSpaceOnUse" x="81" y="33" width="16" height="57">
<path d="M81.2188 33.4187H96.1244V89.9919H81.2188V33.4187Z" fill="white"/>
</mask>
<g mask="url(#mask2_21_2)">
<g opacity="0.600006">
<path d="M91.9127 89.9919H96.1247L93.8543 33.4191H89.6427L91.9127 89.9919Z" fill="#F0F0F0"/>
<path d="M90.2719 89.9919H93.5535L91.2831 33.4191H88.0019L90.2719 89.9919Z" fill="#E7E7E7"/>
<path d="M87.7008 89.9919H91.9128L89.6424 33.4191H85.4308L87.7008 89.9919Z" fill="#F0F0F0"/>
<path d="M86.06 89.9919H89.3416L87.0712 33.4191H83.79L86.06 89.9919Z" fill="#E7E7E7"/>
<path d="M83.4891 89.9919H87.7011L85.4307 33.4191H81.2191L83.4891 89.9919Z" fill="#F0F0F0"/>
</g>
</g>
<path d="M171.162 87.9873H130.12V33.4189H171.162V87.9873Z" fill="#E7E7E7"/>
<path d="M174.28 87.9873H131.4V33.4189H174.28V87.9873Z" fill="#F5F5F5"/>
<path d="M172.538 38.5273L136.958 35.6513L133.14 82.8809L168.72 85.7573L172.538 38.5273Z" fill="white"/>
<path d="M172.538 38.5273L171.662 38.4565L167.844 85.6861L168.72 85.7573L172.538 38.5273Z" fill="#E7E7E7"/>
<path d="M176.542 152.959H153.618V108.37H176.542V152.959Z" fill="#F5F5F5"/>
<path d="M176.542 152.959H174.651V108.37H176.542V152.959Z" fill="#F0F0F0"/>
<path d="M102.602 128.51H155.385V109.643H102.602V128.51Z" fill="#E7E7E7"/>
<path d="M105.146 111.715H176.542V108.37H105.146V111.715Z" fill="#F0F0F0"/>
<path d="M105.146 152.959H82.2232V108.37H105.146V152.959Z" fill="#F5F5F5"/>
<path d="M88.6717 152.959H77.5361V128.094C77.5361 125.047 80.0057 122.578 83.0521 122.578H83.1553C86.2021 122.578 88.6717 125.047 88.6717 128.094V152.959Z" fill="#E7E7E7"/>
<path d="M105.146 152.959H103.256V108.37H105.146V152.959Z" fill="#F0F0F0"/>
<path d="M130.948 108.37H126.003L127.206 98.7448H132.152L130.948 108.37Z" fill="#F0F0F0"/>
<path d="M132.042 108.37H127.096L128.3 98.7448H133.245L132.042 108.37Z" fill="#F5F5F5"/>
<path d="M132.644 103.558H127.698L128.3 98.7448H133.245L132.644 103.558Z" fill="#F0F0F0"/>
<path d="M114.471 102.406H149.455C149.746 102.406 149.972 102.15 149.936 101.86L147.24 80.2915C147.21 80.0491 147.004 79.8667 146.759 79.8667H111.775C111.483 79.8667 111.257 80.1223 111.294 80.4119L113.99 101.981C114.02 102.224 114.226 102.406 114.471 102.406Z" fill="#F0F0F0"/>
<path d="M114.991 102.406H149.975C150.266 102.406 150.492 102.15 150.456 101.86L147.76 80.2915C147.73 80.0491 147.523 79.8667 147.279 79.8667H112.295C112.003 79.8667 111.777 80.1223 111.813 80.4119L114.509 101.981C114.54 102.224 114.746 102.406 114.991 102.406Z" fill="#F5F5F5"/>
<path d="M149.327 101.213L146.804 81.0249C146.795 80.9573 146.738 80.9061 146.669 80.9061H113.077C112.995 80.9061 112.932 80.9777 112.942 81.0585L115.466 101.247C115.474 101.315 115.532 101.366 115.6 101.366H149.193C149.275 101.366 149.337 101.294 149.327 101.213Z" fill="#E7E7E7"/>
<path d="M145.743 101.366L136.863 80.9069H129.077L137.957 101.366H145.743Z" fill="#ECECEC"/>
<path d="M136.458 101.366L127.578 80.9069H124.772L133.652 101.366H136.458Z" fill="#ECECEC"/>
<path d="M129.29 107.468H135.741C136.184 107.468 136.543 107.828 136.543 108.271V108.37H128.488V108.271C128.488 107.828 128.847 107.468 129.29 107.468Z" fill="#F5F5F5"/>
<path d="M124.758 107.468H128.618C129.061 107.468 129.42 107.828 129.42 108.271V108.37H123.956V108.271C123.956 107.828 124.315 107.468 124.758 107.468Z" fill="#F0F0F0"/>
<path d="M145.445 108.371H120.54L119.866 106.372H142.205L145.445 108.371Z" fill="#F5F5F5"/>
<path d="M123.28 108.371H119.165L118.609 106.372H122.723L123.28 108.371Z" fill="#F0F0F0"/>
<path d="M109.937 106.698H113.682C114.605 106.698 115.354 107.447 115.354 108.37H108.265C108.265 107.447 109.014 106.698 109.937 106.698Z" fill="#F0F0F0"/>
<path d="M36.1912 152.959H43.1388V120.666H36.1912V152.959Z" fill="#E1E1E1"/>
<path d="M67.0375 152.959H38.9479L35.4747 114.8H63.5643L67.0375 152.959Z" fill="#E7E7E7"/>
<path d="M68.4926 152.959H40.4026L36.9298 114.8H65.0194L68.4926 152.959Z" fill="#F0F0F0"/>
<path d="M44.2422 148.735L41.5382 119.024H61.1794L63.8838 148.735H44.2422Z" fill="white"/>
</g>
<mask id="mask3_21_2" style="mask-type:luminance" maskUnits="userSpaceOnUse" x="0" y="0" width="201" height="200">
<path d="M0.5 1.52588e-05H200.5V200H0.5V1.52588e-05Z" fill="white"/>
</mask>
<g mask="url(#mask3_21_2)">
<path d="M140.53 70.1001C138.877 84.0917 148.909 105.576 131.611 113.143C117.105 119.489 104.983 110.308 93.1827 123.005C84.5835 132.258 69.6763 147.218 58.4227 131.716C49.6215 119.593 49.1679 101.498 53.4195 87.7713C56.7587 76.9897 67.5887 54.8213 81.6947 52.9617C97.5471 50.8721 107.594 71.6625 116.294 50.6813C121.53 38.0541 132.581 23.1325 149.817 33.3953C156.619 37.4457 154.661 42.4693 151.057 47.6977C145.739 55.4149 141.667 60.4753 140.53 70.1001Z" fill="#7913FC"/>
<mask id="mask4_21_2" style="mask-type:luminance" maskUnits="userSpaceOnUse" x="50" y="29" width="105" height="110">
<path d="M50.808 29.9759H154.344V138.429H50.808V29.9759Z" fill="white"/>
</mask>
<g mask="url(#mask4_21_2)">
<g opacity="0.899994">
<path d="M140.53 70.1001C138.877 84.0917 148.909 105.576 131.611 113.143C117.105 119.489 104.983 110.308 93.1827 123.005C84.5835 132.258 69.6763 147.218 58.4227 131.716C49.6215 119.593 49.1679 101.498 53.4195 87.7713C56.7587 76.9897 67.5887 54.8213 81.6947 52.9617C97.5471 50.8721 107.594 71.6625 116.294 50.6813C121.53 38.0541 132.581 23.1325 149.817 33.3953C156.619 37.4457 154.661 42.4693 151.057 47.6977C145.739 55.4149 141.667 60.4753 140.53 70.1001Z" fill="white"/>
</g>
</g>
</g>
<mask id="mask5_21_2" style="mask-type:luminance" maskUnits="userSpaceOnUse" x="0" y="0" width="201" height="200">
<path d="M0.5 1.52588e-05H200.5V200H0.5V1.52588e-05Z" fill="white"/>
</mask>
<g mask="url(#mask5_21_2)">
<path d="M178.056 166.495C178.056 168.997 143.333 171.025 100.5 171.025C57.6673 171.025 22.9445 168.997 22.9445 166.495C22.9445 163.994 57.6673 161.966 100.5 161.966C143.333 161.966 178.056 163.994 178.056 166.495Z" fill="#F5F5F5"/>
</g>
<path d="M39.9058 76.1396L39.7314 70.81L40.1314 70.7968L40.3058 76.1264L39.9058 76.1396Z" fill="#7913FC"/>
<path d="M39.6644 68.7454L39.5816 66.2126L39.9816 66.1994L40.0644 68.7322L39.6644 68.7454Z" fill="#7913FC"/>
<mask id="mask6_21_2" style="mask-type:luminance" maskUnits="userSpaceOnUse" x="0" y="0" width="201" height="200">
<path d="M0.5 1.52588e-05H200.5V200H0.5V1.52588e-05Z" fill="white"/>
</mask>
<g mask="url(#mask6_21_2)">
<path d="M45.3795 104.747H121.724C123.451 104.747 124.818 103.335 124.761 101.608L123.062 49.5141C123.005 47.7873 121.546 46.3745 119.82 46.3745H43.4747C41.7479 46.3745 40.3811 47.7873 40.4379 49.5141L42.1375 101.608C42.1939 103.335 43.6527 104.747 45.3795 104.747Z" fill="#7913FC"/>
<path d="M45.6242 104.747H121.969C123.696 104.747 125.063 103.335 125.007 101.608L123.307 49.5141C123.25 47.7873 121.791 46.3745 120.065 46.3745H43.7194C41.9926 46.3745 40.6262 47.7873 40.6826 49.5141L42.3822 101.608C42.4386 103.335 43.8974 104.747 45.6242 104.747Z" fill="#7913FC"/>
<mask id="mask7_21_2" style="mask-type:luminance" maskUnits="userSpaceOnUse" x="40" y="46" width="86" height="59">
<path d="M40.6808 46.3744H125.008V104.748H40.6808V46.3744Z" fill="white"/>
</mask>
<g mask="url(#mask7_21_2)">
<g opacity="0.5">
<path d="M45.6242 104.747H121.969C123.696 104.747 125.063 103.335 125.007 101.608L123.307 49.5141C123.25 47.7873 121.791 46.3745 120.065 46.3745H43.7194C41.9926 46.3745 40.6262 47.7873 40.6826 49.5141L42.3822 101.608C42.4386 103.335 43.8974 104.747 45.6242 104.747Z" fill="white"/>
</g>
</g>
<mask id="mask8_21_2" style="mask-type:luminance" maskUnits="userSpaceOnUse" x="41" y="47" width="81" height="5">
<path d="M41.9356 47.9444H121.561V51.084H41.9356V47.9444Z" fill="white"/>
</mask>
<g mask="url(#mask8_21_2)">
<g opacity="0.5">
<path d="M119.871 47.9444H43.5261C43.4397 47.9444 43.3541 47.948 43.2697 47.9548C41.3121 48.1156 41.5937 51.084 43.5633 51.084H120.038C122.008 51.084 122.096 48.1156 120.128 47.9548C120.043 47.948 119.957 47.9444 119.871 47.9444Z" fill="#7913FC"/>
</g>
</g>
<path d="M45.4525 49.514C45.4653 49.9116 45.1537 50.2336 44.7561 50.2336C44.3585 50.2336 44.0261 49.9116 44.0129 49.514C44.0001 49.1164 44.3117 48.7944 44.7093 48.7944C45.1069 48.7944 45.4393 49.1164 45.4525 49.514Z" fill="#FAFAFA"/>
<path d="M47.9008 49.514C47.914 49.9116 47.602 50.2336 47.2044 50.2336C46.8072 50.2336 46.4744 49.9116 46.4612 49.514C46.4484 49.1164 46.76 48.7944 47.1576 48.7944C47.5552 48.7944 47.888 49.1164 47.9008 49.514Z" fill="#FAFAFA"/>
<path d="M50.3492 49.514C50.362 49.9116 50.0504 50.2336 49.6528 50.2336C49.2552 50.2336 48.9228 49.9116 48.9096 49.514C48.8968 49.1164 49.2084 48.7944 49.606 48.7944C50.0032 48.7944 50.336 49.1164 50.3492 49.514Z" fill="#FAFAFA"/>
<path d="M47.1043 99.5481H120.15C120.779 99.5481 121.271 99.0385 121.251 98.4101L119.853 55.5697C119.833 54.9409 119.306 54.4313 118.678 54.4313H45.6323C45.0035 54.4313 44.5107 54.9409 44.5311 55.5697L45.9291 98.4101C45.9495 99.0385 46.4755 99.5481 47.1043 99.5481Z" fill="white"/>
<mask id="mask9_21_2" style="mask-type:luminance" maskUnits="userSpaceOnUse" x="65" y="59" width="36" height="36">
<path d="M65.0712 59.7331H100.71V94.2463H65.0712V59.7331Z" fill="white"/>
</mask>
<g mask="url(#mask9_21_2)">
<g opacity="0.300003">
<path d="M100.711 94.2463H99.3773V93.8671H100.319L100.289 92.9255L100.668 92.9135L100.711 94.2463Z" fill="#7913FC"/>
<path d="M71.7664 94.2463H69.6424V93.8671H71.7664V94.2463ZM76.014 94.2463H73.89V93.8671H76.014V94.2463ZM80.262 94.2463H78.1376V93.8671H80.262V94.2463ZM84.5096 94.2463H82.3856V93.8671H84.5096V94.2463ZM88.7576 94.2463H86.6336V93.8671H88.7576V94.2463ZM93.0056 94.2463H90.8812V93.8671H93.0056V94.2463ZM97.2532 94.2463H95.1292V93.8671H97.2532V94.2463Z" fill="#7913FC"/>
<path d="M67.5188 94.2463H66.1972L66.1544 92.9255L66.5332 92.9135L66.5644 93.8671H67.5188V94.2463Z" fill="#7913FC"/>
<path d="M65.2535 65.3139L65.1843 63.1899L65.5631 63.1775L65.6323 65.3015L65.2535 65.3139ZM65.3923 69.5619L65.3231 67.4379L65.7019 67.4255L65.7711 69.5495L65.3923 69.5619ZM65.5307 73.8099L65.4615 71.6859L65.8403 71.6735L65.9099 73.7975L65.5307 73.8099ZM65.6695 78.0579L65.5999 75.9339L65.9787 75.9215L66.0483 78.0455L65.6695 78.0579ZM65.8079 82.3059L65.7387 80.1819L66.1175 80.1695L66.1867 82.2935L65.8079 82.3059ZM65.9463 86.5539L65.8775 84.4299L66.2563 84.4175L66.3255 86.5415L65.9463 86.5539ZM66.0851 90.8015L66.0159 88.6775L66.3951 88.6655L66.4639 90.7895L66.0851 90.8015Z" fill="#7913FC"/>
<path d="M65.1148 61.0659L65.0712 59.7327H66.4048V60.1123H65.4632L65.4936 61.0535L65.1148 61.0659Z" fill="#7913FC"/>
<path d="M70.6528 60.1123H68.5288V59.7331H70.6528V60.1123ZM74.9008 60.1123H72.7764V59.7331H74.9008V60.1123ZM79.1484 60.1123H77.0244V59.7331H79.1484V60.1123ZM83.396 60.1123H81.272V59.7331H83.396V60.1123ZM87.644 60.1123H85.5196V59.7331H87.644V60.1123ZM91.8916 60.1123H89.7676V59.7331H91.8916V60.1123ZM96.1396 60.1123H94.0156V59.7331H96.1396V60.1123Z" fill="#7913FC"/>
<path d="M99.2488 61.0659L99.2176 60.1123H98.2632V59.7327H99.5848L99.6276 61.0535L99.2488 61.0659Z" fill="#7913FC"/>
<path d="M99.3875 65.3142L99.3183 63.1902L99.6971 63.1778L99.7663 65.3018L99.3875 65.3142ZM99.5263 69.5622L99.4571 67.4382L99.8359 67.4258L99.9051 69.5498L99.5263 69.5622ZM99.6647 73.8102L99.5959 71.6862L99.9747 71.6738L100.044 73.7978L99.6647 73.8102ZM99.8035 78.0582L99.7339 75.9342L100.113 75.9218L100.182 78.0458L99.8035 78.0582ZM99.9423 82.3062L99.8727 80.1822L100.251 80.1698L100.321 82.2934L99.9423 82.3062ZM100.08 86.5538L100.011 84.4302L100.39 84.4178L100.459 86.5418L100.08 86.5538ZM100.219 90.8018L100.15 88.6778L100.529 88.6658L100.598 90.7894L100.219 90.8018Z" fill="#7913FC"/>
</g>
</g>
<path d="M80.7391 69.6483C78.5919 69.6483 76.7467 71.1671 76.3507 73.2599L76.2835 73.6151L75.9227 73.6383C73.8799 73.7699 72.3315 75.4819 72.3983 77.5363C72.4695 79.707 74.2935 81.4734 76.4643 81.4734H90.4291C91.1319 81.4734 91.7831 81.2007 92.2631 80.7051C92.7435 80.2091 92.9955 79.5483 92.9723 78.8443C92.9363 77.7483 92.2143 76.7495 91.1759 76.3583L90.8871 76.2495L90.8743 75.9411C90.7899 73.8807 89.0451 72.2043 86.9847 72.2043C86.5015 72.2043 86.0327 72.2959 85.5923 72.4763L85.1987 72.6375L85.0023 72.2607C84.1623 70.6491 82.5287 69.6483 80.7391 69.6483ZM90.4291 82.4062H76.4643C73.7959 82.4062 71.5539 80.235 71.4663 77.5667C71.3871 75.1251 73.1387 73.0715 75.5111 72.7435C76.1183 70.3899 78.2631 68.7159 80.7391 68.7159C82.7423 68.7159 84.5807 69.7631 85.6283 71.4743C86.0647 71.3399 86.5195 71.2719 86.9847 71.2719C89.4383 71.2719 91.5307 73.1895 91.7843 75.6047C93.0199 76.1927 93.8599 77.4467 93.9043 78.8139C93.9355 79.7727 93.5907 80.6747 92.9331 81.3538C92.2763 82.0322 91.3867 82.4062 90.4291 82.4062Z" fill="#7913FC"/>
<path d="M86.4049 77.8719L82.5533 74.1419L78.9449 77.8719H81.0565L81.1825 81.7283H84.4193L84.2933 77.8719H86.4049Z" fill="#7913FC"/>
</g>
<mask id="mask10_21_2" style="mask-type:luminance" maskUnits="userSpaceOnUse" x="0" y="0" width="201" height="200">
<path d="M0.5 1.52588e-05H200.5V200H0.5V1.52588e-05Z" fill="white"/>
</mask>
<g mask="url(#mask10_21_2)">
<path d="M147.278 62.7208C147.648 63.2508 147.943 63.6992 148.249 64.196C148.553 64.6812 148.84 65.1728 149.119 65.6708C149.679 66.664 150.2 67.68 150.678 68.7276C151.153 69.7748 151.603 70.8432 151.973 71.9604C152.362 73.0644 152.679 74.2244 152.915 75.4208L153.07 76.3332L153.089 76.4472L153.11 76.5928C153.126 76.7328 153.144 76.8528 153.15 77.0088C153.155 77.1628 153.162 77.3032 153.15 77.48L153.132 77.7328L153.089 78.0116C153.063 78.1884 152.999 78.404 152.938 78.5948C152.858 78.8028 152.777 79.0024 152.656 79.2032C152.432 79.6036 152.104 79.96 151.773 80.2128C151.088 80.7352 150.47 80.8848 149.97 80.98C149.463 81.0652 149.051 81.0628 148.665 81.0456C148.282 81.0244 147.933 80.9828 147.603 80.92C146.945 80.7968 146.348 80.6332 145.775 80.4508C144.632 80.0764 143.579 79.6292 142.558 79.132C141.535 78.6312 140.567 78.1028 139.593 77.4768L140.743 74.9244C142.765 75.4212 144.853 75.966 146.777 76.2288C147.253 76.2976 147.718 76.3392 148.132 76.3436C148.532 76.3516 148.927 76.3084 148.992 76.248C149.016 76.2292 148.926 76.2008 148.66 76.3772C148.54 76.4624 148.394 76.6116 148.296 76.7732C148.249 76.86 148.207 76.9288 148.18 77.0132C148.149 77.0728 148.135 77.1608 148.12 77.2028L148.096 77.3312C148.095 77.3732 148.087 77.3788 148.087 77.398C148.088 77.4188 148.077 77.4064 148.077 77.4124C148.079 77.4252 148.069 77.386 148.062 77.3592L148.039 77.2748L147.859 76.6028C147.323 74.8004 146.535 72.9616 145.612 71.1664C145.161 70.264 144.665 69.3732 144.161 68.488C143.91 68.0448 143.647 67.6072 143.387 67.1712C143.13 66.7468 142.849 66.2816 142.615 65.916L147.278 62.7208Z" fill="#FFB670"/>
<path d="M141.214 75.1243L139.48 73.3951L137.754 77.2407C137.754 77.2407 139.386 78.1463 140.842 77.4859L141.214 75.1243Z" fill="#FFB670"/>
<path d="M136.915 72.0175L135.637 75.2631L137.754 77.2407L139.48 73.3947L136.915 72.0175Z" fill="#FFB670"/>
<path d="M136.905 97.3123L103.601 91.4455L109.468 58.1415L142.772 64.0087L136.905 97.3123Z" fill="#7913FC"/>
<mask id="mask11_21_2" style="mask-type:luminance" maskUnits="userSpaceOnUse" x="103" y="58" width="40" height="40">
<path d="M103.602 58.1419H142.772V97.3123H103.602V58.1419Z" fill="white"/>
</mask>
<g mask="url(#mask11_21_2)">
<g opacity="0.600006">
<path d="M136.905 97.3123L103.601 91.4455L109.468 58.1415L142.772 64.0087L136.905 97.3123Z" fill="white"/>
</g>
</g>
<path d="M135.57 95.4062L105.507 90.1103L110.803 60.0479L140.866 65.3439L135.57 95.4062Z" fill="white"/>
<mask id="mask12_21_2" style="mask-type:luminance" maskUnits="userSpaceOnUse" x="116" y="65" width="12" height="12">
<path d="M116.079 65.1503H127.351V76.4219H116.079V65.1503Z" fill="white"/>
</mask>
<g mask="url(#mask12_21_2)">
<g opacity="0.300003">
<path d="M127.264 71.7637C126.724 74.8285 123.802 76.8757 120.737 76.3357C117.672 75.7957 115.625 72.8733 116.165 69.8085C116.705 66.7437 119.627 64.6969 122.692 65.2365C125.757 65.7765 127.804 68.6989 127.264 71.7637Z" fill="#7913FC"/>
</g>
</g>
<mask id="mask13_21_2" style="mask-type:luminance" maskUnits="userSpaceOnUse" x="105" y="78" width="32" height="18">
<path d="M105.51 78.9925H136.512V95.4053H105.51V78.9925Z" fill="white"/>
</mask>
<g mask="url(#mask13_21_2)">
<g opacity="0.199997">
<path d="M128.765 78.9925L118.689 86.0465L114.055 79.4309L106.452 84.7565L105.509 90.1101L135.568 95.4053L136.512 90.0517L128.765 78.9925Z" fill="#7913FC"/>
</g>
</g>
<path d="M130.418 50.6055C130.423 50.8715 130.286 51.0903 130.113 51.0939C129.939 51.0975 129.793 50.8847 129.788 50.6187C129.782 50.3527 129.918 50.1339 130.093 50.1303C130.266 50.1267 130.412 50.3395 130.418 50.6055Z" fill="#1A2E35"/>
<path d="M130.311 51.0897C130.311 51.0897 129.738 52.6377 129.087 53.3921C129.567 53.8217 130.364 53.6045 130.364 53.6045L130.311 51.0897Z" fill="#FF5551"/>
<path d="M131.354 49.109C131.315 49.1158 131.273 49.1082 131.238 49.0838C130.67 48.6922 130.145 48.8938 130.123 48.9034C130.043 48.9354 129.952 48.8966 129.919 48.817C129.887 48.737 129.925 48.6466 130.005 48.6138C130.033 48.6022 130.703 48.3358 131.415 48.8262C131.487 48.8754 131.504 48.9726 131.455 49.0438C131.431 49.0794 131.394 49.1018 131.354 49.109Z" fill="#1A2E35"/>
<path d="M138.128 51.6208C137.959 54.0752 138.152 59.0336 140.029 60.4212C140.029 60.4212 139.569 62.4232 135.118 62.9824C130.224 63.5972 132.474 60.8464 132.474 60.8464C135.065 59.8732 134.747 57.9 134.048 56.0972L138.128 51.6208Z" fill="#FFB670"/>
<path d="M151.506 157.173C151.135 157.143 150.521 157.139 150.296 157.33C150.244 157.374 150.218 157.426 150.216 157.489C150.212 157.636 150.273 157.665 150.294 157.675C150.505 157.777 151.105 157.471 151.506 157.173ZM150.258 157.829C150.247 157.825 150.236 157.821 150.226 157.816C150.147 157.778 150.054 157.69 150.06 157.485C150.063 157.377 150.108 157.284 150.195 157.211C150.572 156.89 151.668 157.031 151.715 157.037C151.746 157.042 151.771 157.063 151.78 157.092C151.788 157.122 151.779 157.154 151.756 157.174C151.499 157.394 150.652 157.965 150.258 157.829Z" fill="#7913FC"/>
<path d="M150.783 156.291C150.765 156.285 150.747 156.28 150.729 156.276C150.645 156.258 150.573 156.271 150.507 156.315C150.423 156.372 150.436 156.417 150.441 156.437C150.504 156.649 151.127 156.944 151.547 157.019C151.395 156.802 151.079 156.393 150.783 156.291ZM151.151 157.071C150.767 156.939 150.36 156.713 150.292 156.481C150.273 156.416 150.264 156.291 150.42 156.185C150.521 156.117 150.636 156.096 150.762 156.123C151.244 156.225 151.75 157.039 151.771 157.074C151.786 157.098 151.787 157.129 151.772 157.153C151.758 157.178 151.731 157.193 151.703 157.193C151.565 157.189 151.361 157.144 151.151 157.071Z" fill="#7913FC"/>
<path d="M125.444 162.655C125.389 162.655 125.338 162.66 125.293 162.673C125.221 162.692 125.17 162.728 125.14 162.782C125.084 162.879 125.104 162.927 125.125 162.955C125.278 163.168 126.113 163.173 126.726 163.086C126.42 162.93 125.829 162.655 125.444 162.655ZM125.967 163.295C125.543 163.295 125.135 163.236 124.997 163.046C124.949 162.98 124.911 162.866 125.004 162.705C125.055 162.614 125.139 162.553 125.252 162.522C125.801 162.372 126.954 163.03 127.003 163.058C127.031 163.074 127.047 163.106 127.041 163.138C127.036 163.17 127.011 163.196 126.979 163.202C126.769 163.244 126.361 163.295 125.967 163.295Z" fill="#7913FC"/>
<path d="M126.159 161.866C126.144 161.866 126.128 161.867 126.112 161.868C125.971 161.883 125.962 161.938 125.96 161.956C125.923 162.18 126.459 162.741 126.866 162.985C126.824 162.726 126.706 162.194 126.43 161.968C126.347 161.899 126.258 161.866 126.159 161.866ZM126.964 163.204C126.953 163.204 126.942 163.202 126.932 163.197C126.534 163.018 125.745 162.304 125.805 161.931C125.819 161.844 125.881 161.735 126.096 161.713C126.255 161.698 126.402 161.742 126.53 161.847C126.95 162.192 127.038 163.081 127.042 163.118C127.044 163.146 127.032 163.173 127.01 163.189C126.996 163.199 126.98 163.204 126.964 163.204Z" fill="#7913FC"/>
<path d="M130.593 163.125H127.293L126.964 155.483H130.264L130.593 163.125Z" fill="#FFB670"/>
<path d="M155.268 156.157L152.208 156.998L148.29 149.832L151.35 148.991L155.268 156.157Z" fill="#FFB670"/>
<path d="M151.75 156.662L155.05 154.974C155.171 154.912 155.317 154.943 155.403 155.046L157.319 157.361C157.518 157.601 157.437 157.966 157.157 158.103C155.994 158.673 155.4 158.892 153.948 159.635C153.055 160.091 150.399 162.067 149.059 162.416C147.748 162.757 147.198 161.485 147.716 161.222C150.036 160.043 150.974 158.109 151.365 157.087C151.436 156.903 151.574 156.752 151.75 156.662Z" fill="#1A2E35"/>
<path d="M127.315 162.744H130.918C131.053 162.744 131.17 162.837 131.199 162.969L131.851 165.902C131.919 166.206 131.688 166.494 131.377 166.489C130.077 166.467 128.198 166.391 126.564 166.391C124.653 166.391 123.003 166.495 120.763 166.495C119.408 166.495 119.032 165.126 119.599 165.002C122.181 164.437 124.289 164.376 126.519 163.001C126.762 162.851 127.03 162.744 127.315 162.744Z" fill="#1A2E35"/>
<path d="M141.494 66.5307C141.838 67.4175 142.217 68.2819 142.599 69.0923C143.256 70.4943 143.912 71.7191 144.388 72.5655C144.813 73.3271 145.091 73.7783 145.091 73.7783L152.3 70.2035C152.3 70.2035 149.395 61.8543 146.363 60.9255C143.256 59.9815 139.938 62.5503 141.494 66.5307Z" fill="#1A2E35"/>
<mask id="mask14_21_2" style="mask-type:luminance" maskUnits="userSpaceOnUse" x="143" y="67" width="3" height="7">
<path d="M143.294 67.3559H145.917V73.7791H143.294V67.3559Z" fill="white"/>
</mask>
<g mask="url(#mask14_21_2)">
<g opacity="0.199997">
<path d="M144.688 67.3557C144.06 67.8177 143.612 69.0597 143.294 70.5189C143.705 71.3225 144.083 72.0201 144.388 72.5645C144.813 73.3269 145.09 73.7793 145.09 73.7793L145.917 73.3685C145.861 71.4381 145.552 69.2629 144.688 67.3557Z" fill="black"/>
</g>
</g>
<path d="M126.252 71.8549C126.252 72.9781 126.279 74.2133 126.342 75.5745C126.503 79.2757 126.908 83.8893 127.68 89.6213H145.33C145.451 86.9125 143.749 73.6925 146.363 60.9257C146.363 60.9257 143.335 60.3193 140.451 60.1801C138.196 60.0721 134.931 60.0001 132.95 60.1801C130.335 60.4225 127.873 61.0965 127.873 61.0965C127.873 61.0965 126.247 62.9337 126.252 71.8549Z" fill="#1A2E35"/>
<path d="M130.792 66.6154C130.478 67.2722 130.21 67.737 129.914 68.2178C129.623 68.6898 129.33 69.143 129.023 69.5826C128.417 70.4662 127.779 71.3118 127.112 72.1382C125.774 73.7874 124.331 75.359 122.658 76.8102C121.825 77.5394 120.92 78.2262 119.898 78.853L119.504 79.0826L119.401 79.141L119.257 79.2138L118.966 79.3534C118.575 79.5226 118.179 79.6546 117.79 79.7326C117.01 79.893 116.277 79.9034 115.603 79.8438C114.254 79.701 113.124 79.2878 112.09 78.7922C111.575 78.5354 111.085 78.2626 110.619 77.9534C110.142 77.6458 109.727 77.3302 109.257 76.9322L110.674 74.5174C112.404 74.9706 114.358 75.3786 115.7 75.187C116.028 75.147 116.303 75.0654 116.493 74.9658C116.588 74.9142 116.662 74.8674 116.722 74.8182C116.735 74.8038 116.748 74.791 116.762 74.7794L116.783 74.7626L116.84 74.7218L117.082 74.551C117.734 74.0718 118.386 73.4854 119.027 72.857C120.305 71.5886 121.519 70.1386 122.664 68.6406C123.236 67.8906 123.79 67.1222 124.32 66.3534C124.582 65.967 124.84 65.583 125.08 65.2046C125.314 64.8342 125.559 64.4362 125.685 64.1914L130.792 66.6154Z" fill="#FFB670"/>
<path d="M111.388 74.8717L108.344 73.4289L108.069 77.5109C108.069 77.5109 110.435 77.9205 111.687 76.9965L111.388 74.8717Z" fill="#FFB670"/>
<path d="M104.507 74.1227L105.68 77.2343L108.069 77.5107L108.344 73.4287L104.507 74.1227Z" fill="#FFB670"/>
<path d="M132.973 64.4531C132.869 67.6067 126.373 74.8723 126.373 74.8723L119.511 70.3903C119.511 70.3903 121.687 66.3195 124.512 63.3739C128.774 58.9303 133.097 60.6683 132.973 64.4531Z" fill="#1A2E35"/>
<mask id="mask15_21_2" style="mask-type:luminance" maskUnits="userSpaceOnUse" x="126" y="155" width="5" height="5">
<path d="M126.965 155.486H130.435V159.425H126.965V155.486Z" fill="white"/>
</mask>
<g mask="url(#mask15_21_2)">
<g opacity="0.199997">
<path d="M126.965 155.485L127.134 159.425H130.435L130.266 155.485H126.965Z" fill="black"/>
</g>
</g>
<mask id="mask16_21_2" style="mask-type:luminance" maskUnits="userSpaceOnUse" x="148" y="148" width="6" height="6">
<path d="M148.291 148.993H153.373V153.528H148.291V148.993Z" fill="white"/>
</mask>
<g mask="url(#mask16_21_2)">
<g opacity="0.199997">
<path d="M151.352 148.993L148.291 149.835L150.312 153.527L153.373 152.686L151.352 148.993Z" fill="black"/>
</g>
</g>
<path d="M139.282 49.8562C139.149 53.1286 139.238 55.051 137.623 56.763C135.192 59.3382 131.127 57.9254 130.279 54.6794C129.515 51.7574 129.86 46.8966 133.032 45.5294C136.157 44.1822 139.415 46.5838 139.282 49.8562Z" fill="#FFB670"/>
<path d="M132.767 51.416C131.589 50.578 130.433 48.8444 130.522 47.5556C129.433 47.5112 128.7 45.7112 129.3 44.4C129.678 45.2444 130.977 44.6224 131.483 43.9556C131.211 43.3112 131.255 42.2444 133.122 41.4888C132.967 42.0332 133.048 42.9472 134.922 42.2888C137.2 41.4888 141.202 42.0224 140.029 44.7332C141.633 45.0224 143.711 48.3308 141.945 50.0732C140.177 51.8156 139.811 54.6224 138.3 54.9112C136.789 55.2 132.855 55.2988 132.767 51.416Z" fill="#1A2E35"/>
<path d="M138.965 44.6251C140.015 44.1443 141.708 44.3507 142.62 45.6523C141.378 45.1447 140.668 44.8139 138.965 44.6251Z" fill="#1A2E35"/>
<path d="M133.629 51.2765C133.605 52.0437 133.269 52.7741 132.855 53.2569C132.231 53.9837 131.547 53.5609 131.409 52.7009C131.285 51.9265 131.46 50.6153 132.236 50.2025C133 49.7961 133.657 50.3993 133.629 51.2765Z" fill="#FFB670"/>
<path d="M133.94 89.6214C133.94 89.6214 132.382 114.593 135.334 123.801C140.009 138.385 148.342 153.283 148.342 153.283L154.303 151.491C154.303 151.491 147.748 135.764 145.592 123.479C143.656 112.442 145.329 98.6362 145.329 89.6214H133.94Z" fill="#7913FC"/>
<mask id="mask17_21_2" style="mask-type:luminance" maskUnits="userSpaceOnUse" x="133" y="94" width="5" height="22">
<path d="M133.53 94.9447H137.164V115.105H133.53V94.9447Z" fill="white"/>
</mask>
<g mask="url(#mask17_21_2)">
<g opacity="0.199997">
<path d="M133.687 95.1855C135.353 94.6983 136.651 94.8823 136.988 96.3643C137.868 100.234 135.229 110.437 133.913 115.105C133.38 108.417 133.504 100.417 133.687 95.1855Z" fill="black"/>
</g>
</g>
<path d="M146.66 151.574C146.635 151.582 148.215 153.42 148.215 153.42L154.727 151.461L153.9 149.258L146.66 151.574Z" fill="#1A2E35"/>
<path d="M127.678 89.6215C127.678 89.6215 122.707 110.69 122.357 120.754C121.965 132.04 125.904 158.662 125.904 158.662H131.495C131.495 158.662 132.183 131.833 132.431 121.553C132.703 110.345 139.281 89.6215 139.281 89.6215H127.678Z" fill="#7913FC"/>
<path d="M124.828 156.435C124.803 156.435 125.144 158.756 125.144 158.756H131.944L132.128 156.685L124.828 156.435Z" fill="#1A2E35"/>
<path d="M130.15 59.4067C130.906 59.1447 136.673 58.4119 140.857 58.6351C143.246 58.7627 144.593 59.0231 145.569 59.4955C146.545 59.9675 144.796 62.3455 143.989 62.6359C144.316 63.5479 142.496 64.7115 141.458 65.2639C141.043 66.1215 136.953 66.9135 134.551 65.0715C132.707 63.6575 127.991 60.1547 130.15 59.4067Z" fill="#7913FC"/>
</g>
</g>
<defs>
<clipPath id="clip0_21_2">
<rect width="200" height="200" fill="white" transform="translate(0.5)"/>
</clipPath>
</defs>
</svg>
